<svg width="900" height="1200" viewBox="0 0 900 1200" fill="none" xmlns="http://www.w3.org/2000/svg">
  <rect width="900" height="1200" fill="#1E2A24"/>
  <rect x="56" y="56" width="788" height="1088" rx="40" fill="#31443B"/>
  <rect x="108" y="108" width="684" height="984" rx="28" fill="#D9D2C3"/>
  <path d="M269 279L385 196H515L631 279L581 433H529V937H371V433H319L269 279Z" fill="#B86A4B"/>
  <path d="M385 196L450 278L515 196" stroke="#F7F0E4" stroke-width="18" stroke-linecap="round" stroke-linejoin="round"/>
  <path d="M319 433L230 544V630L331 564" stroke="#8A4B31" stroke-width="22" stroke-linecap="round" stroke-linejoin="round"/>
  <path d="M581 433L670 544V630L569 564" stroke="#8A4B31" stroke-width="22" stroke-linecap="round" stroke-linejoin="round"/>
  <path d="M450 280V938" stroke="#F7F0E4" stroke-width="14" stroke-linecap="round"/>
  <circle cx="450" cy="485" r="15" fill="#F7F0E4"/>
  <circle cx="450" cy="560" r="15" fill="#F7F0E4"/>
  <circle cx="450" cy="635" r="15" fill="#F7F0E4"/>
  <text x="108" y="1032" fill="#1E2A24" font-family="Arial, sans-serif" font-size="64" font-weight="700" letter-spacing="6">OUTERWEAR</text>
</svg>
